<mxfile host="Electron" modified="2023-09-12T11:53:13.659Z" agent="Mozilla/5.0 (X11; Linux x86_64) AppleWebKit/537.36 (KHTML, like Gecko) draw.io/21.6.8 Chrome/114.0.5735.289 Electron/25.5.0 Safari/537.36" etag="-C_Xv8kQxslUdVjWR1Ov" version="21.6.8" type="device">
  <diagram name="Page-1" id="4JSVzV4t78ynqyhooh6n">
    <mxGraphModel dx="2049" dy="1296" grid="1" gridSize="10" guides="1" tooltips="1" connect="1" arrows="1" fold="1" page="1" pageScale="1" pageWidth="3000" pageHeight="5000" math="0" shadow="0">
      <root>
        <mxCell id="0" />
        <mxCell id="1" parent="0" />
        <mxCell id="GSNahYON6GvRc6ION9MD-1" value="MALL" style="whiteSpace=wrap;html=1;align=center;fontSize=20;" parent="1" vertex="1">
          <mxGeometry x="880" y="470" width="180" height="90" as="geometry" />
        </mxCell>
        <mxCell id="GSNahYON6GvRc6ION9MD-2" value="name" style="ellipse;whiteSpace=wrap;html=1;align=center;fontStyle=4;fontSize=20;" parent="1" vertex="1">
          <mxGeometry x="700" y="260" width="130" height="70" as="geometry" />
        </mxCell>
        <mxCell id="GSNahYON6GvRc6ION9MD-3" value="address" style="ellipse;whiteSpace=wrap;html=1;align=center;fontSize=20;" parent="1" vertex="1">
          <mxGeometry x="900" y="250" width="140" height="60" as="geometry" />
        </mxCell>
        <mxCell id="GSNahYON6GvRc6ION9MD-5" value="" style="endArrow=none;html=1;rounded=0;exitX=0.5;exitY=1;exitDx=0;exitDy=0;entryX=0.25;entryY=0;entryDx=0;entryDy=0;" parent="1" source="GSNahYON6GvRc6ION9MD-2" target="GSNahYON6GvRc6ION9MD-1" edge="1">
          <mxGeometry relative="1" as="geometry">
            <mxPoint x="680" y="460" as="sourcePoint" />
            <mxPoint x="840" y="460" as="targetPoint" />
          </mxGeometry>
        </mxCell>
        <mxCell id="GSNahYON6GvRc6ION9MD-6" value="" style="endArrow=none;html=1;rounded=0;exitX=0.5;exitY=1;exitDx=0;exitDy=0;entryX=0.5;entryY=0;entryDx=0;entryDy=0;" parent="1" source="GSNahYON6GvRc6ION9MD-3" target="GSNahYON6GvRc6ION9MD-1" edge="1">
          <mxGeometry relative="1" as="geometry">
            <mxPoint x="780" y="660" as="sourcePoint" />
            <mxPoint x="940" y="660" as="targetPoint" />
          </mxGeometry>
        </mxCell>
        <mxCell id="GSNahYON6GvRc6ION9MD-8" value="store" style="whiteSpace=wrap;html=1;align=center;fontSize=19;" parent="1" vertex="1">
          <mxGeometry x="895" y="940" width="185" height="90" as="geometry" />
        </mxCell>
        <mxCell id="GSNahYON6GvRc6ION9MD-9" value="located_in" style="shape=rhombus;perimeter=rhombusPerimeter;whiteSpace=wrap;html=1;align=center;fontSize=19;" parent="1" vertex="1">
          <mxGeometry x="885" y="690" width="195" height="100" as="geometry" />
        </mxCell>
        <mxCell id="GSNahYON6GvRc6ION9MD-10" value="" style="endArrow=none;html=1;rounded=0;entryX=1;entryY=0;entryDx=0;entryDy=0;exitX=0.75;exitY=1;exitDx=0;exitDy=0;" parent="1" source="GSNahYON6GvRc6ION9MD-1" target="GSNahYON6GvRc6ION9MD-9" edge="1">
          <mxGeometry relative="1" as="geometry">
            <mxPoint x="830" y="630" as="sourcePoint" />
            <mxPoint x="990" y="630" as="targetPoint" />
            <Array as="points" />
          </mxGeometry>
        </mxCell>
        <mxCell id="GSNahYON6GvRc6ION9MD-11" value="" style="endArrow=none;html=1;rounded=0;entryX=0.75;entryY=0;entryDx=0;entryDy=0;fontSize=19;exitX=1;exitY=1;exitDx=0;exitDy=0;" parent="1" source="GSNahYON6GvRc6ION9MD-9" target="GSNahYON6GvRc6ION9MD-8" edge="1">
          <mxGeometry relative="1" as="geometry">
            <mxPoint x="770" y="830" as="sourcePoint" />
            <mxPoint x="930" y="830" as="targetPoint" />
          </mxGeometry>
        </mxCell>
        <mxCell id="GSNahYON6GvRc6ION9MD-12" value="snum" style="ellipse;whiteSpace=wrap;html=1;align=center;fontStyle=4;direction=west;fontSize=19;" parent="1" vertex="1">
          <mxGeometry x="660" y="850" width="130" height="70" as="geometry" />
        </mxCell>
        <mxCell id="GSNahYON6GvRc6ION9MD-13" value="sname" style="ellipse;whiteSpace=wrap;html=1;align=center;fontSize=19;" parent="1" vertex="1">
          <mxGeometry x="650" y="1060" width="130" height="70" as="geometry" />
        </mxCell>
        <mxCell id="GSNahYON6GvRc6ION9MD-14" value="sloc" style="ellipse;whiteSpace=wrap;html=1;align=center;fontSize=19;" parent="1" vertex="1">
          <mxGeometry x="570" y="952.5" width="130" height="70" as="geometry" />
        </mxCell>
        <mxCell id="GSNahYON6GvRc6ION9MD-17" value="" style="endArrow=none;html=1;rounded=0;exitX=0;exitY=0.5;exitDx=0;exitDy=0;entryX=0;entryY=0.5;entryDx=0;entryDy=0;fontSize=19;" parent="1" source="GSNahYON6GvRc6ION9MD-12" target="GSNahYON6GvRc6ION9MD-8" edge="1">
          <mxGeometry relative="1" as="geometry">
            <mxPoint x="810" y="1030" as="sourcePoint" />
            <mxPoint x="970" y="1030" as="targetPoint" />
          </mxGeometry>
        </mxCell>
        <mxCell id="GSNahYON6GvRc6ION9MD-18" value="" style="endArrow=none;html=1;rounded=0;exitX=1;exitY=0;exitDx=0;exitDy=0;entryX=0;entryY=1;entryDx=0;entryDy=0;fontSize=19;" parent="1" source="GSNahYON6GvRc6ION9MD-13" target="GSNahYON6GvRc6ION9MD-8" edge="1">
          <mxGeometry relative="1" as="geometry">
            <mxPoint x="770" y="1050" as="sourcePoint" />
            <mxPoint x="930" y="1050" as="targetPoint" />
          </mxGeometry>
        </mxCell>
        <mxCell id="GSNahYON6GvRc6ION9MD-20" value="owner" style="whiteSpace=wrap;html=1;align=center;fontSize=18;" parent="1" vertex="1">
          <mxGeometry x="1565" y="1140" width="150" height="70" as="geometry" />
        </mxCell>
        <mxCell id="GSNahYON6GvRc6ION9MD-21" value="own" style="shape=rhombus;perimeter=rhombusPerimeter;whiteSpace=wrap;html=1;align=center;fontSize=18;" parent="1" vertex="1">
          <mxGeometry x="1560" y="930" width="160" height="90" as="geometry" />
        </mxCell>
        <mxCell id="GSNahYON6GvRc6ION9MD-22" value="" style="endArrow=none;html=1;rounded=0;exitX=1;exitY=0.5;exitDx=0;exitDy=0;entryX=0;entryY=0;entryDx=0;entryDy=0;fontSize=19;" parent="1" source="GSNahYON6GvRc6ION9MD-8" target="GSNahYON6GvRc6ION9MD-21" edge="1">
          <mxGeometry relative="1" as="geometry">
            <mxPoint x="860" y="1100" as="sourcePoint" />
            <mxPoint x="1020" y="1100" as="targetPoint" />
          </mxGeometry>
        </mxCell>
        <mxCell id="GSNahYON6GvRc6ION9MD-23" value="" style="endArrow=none;html=1;rounded=0;exitX=1;exitY=1;exitDx=0;exitDy=0;entryX=0.75;entryY=0;entryDx=0;entryDy=0;fontSize=18;" parent="1" source="GSNahYON6GvRc6ION9MD-21" target="GSNahYON6GvRc6ION9MD-20" edge="1">
          <mxGeometry relative="1" as="geometry">
            <mxPoint x="1350" y="1090" as="sourcePoint" />
            <mxPoint x="1510" y="1090" as="targetPoint" />
          </mxGeometry>
        </mxCell>
        <mxCell id="GSNahYON6GvRc6ION9MD-24" value="so-ssn" style="ellipse;whiteSpace=wrap;html=1;align=center;fontStyle=4;fontSize=18;" parent="1" vertex="1">
          <mxGeometry x="1300" y="1170" width="110" height="70" as="geometry" />
        </mxCell>
        <mxCell id="GSNahYON6GvRc6ION9MD-25" value="so-name" style="ellipse;whiteSpace=wrap;html=1;align=center;fontSize=18;" parent="1" vertex="1">
          <mxGeometry x="1430" y="1330" width="130" height="80" as="geometry" />
        </mxCell>
        <mxCell id="GSNahYON6GvRc6ION9MD-26" value="so-address" style="ellipse;whiteSpace=wrap;html=1;align=center;fontSize=18;" parent="1" vertex="1">
          <mxGeometry x="1670" y="1310" width="120" height="80" as="geometry" />
        </mxCell>
        <mxCell id="GSNahYON6GvRc6ION9MD-27" value="so-off-phone" style="ellipse;whiteSpace=wrap;html=1;align=center;fontSize=18;" parent="1" vertex="1">
          <mxGeometry x="1820" y="1170" width="120" height="70" as="geometry" />
        </mxCell>
        <mxCell id="GSNahYON6GvRc6ION9MD-28" value="" style="endArrow=none;html=1;rounded=0;exitX=1;exitY=0.5;exitDx=0;exitDy=0;entryX=0;entryY=0.5;entryDx=0;entryDy=0;fontSize=18;" parent="1" source="GSNahYON6GvRc6ION9MD-24" target="GSNahYON6GvRc6ION9MD-20" edge="1">
          <mxGeometry relative="1" as="geometry">
            <mxPoint x="1420" y="1190" as="sourcePoint" />
            <mxPoint x="1580" y="1190" as="targetPoint" />
          </mxGeometry>
        </mxCell>
        <mxCell id="GSNahYON6GvRc6ION9MD-29" value="" style="endArrow=none;html=1;rounded=0;exitX=0.5;exitY=0;exitDx=0;exitDy=0;entryX=0.25;entryY=1;entryDx=0;entryDy=0;fontSize=18;" parent="1" source="GSNahYON6GvRc6ION9MD-25" target="GSNahYON6GvRc6ION9MD-20" edge="1">
          <mxGeometry relative="1" as="geometry">
            <mxPoint x="1500" y="1290" as="sourcePoint" />
            <mxPoint x="1660" y="1290" as="targetPoint" />
          </mxGeometry>
        </mxCell>
        <mxCell id="GSNahYON6GvRc6ION9MD-30" value="" style="endArrow=none;html=1;rounded=0;exitX=0.75;exitY=1;exitDx=0;exitDy=0;entryX=0.5;entryY=0;entryDx=0;entryDy=0;fontSize=18;" parent="1" source="GSNahYON6GvRc6ION9MD-20" target="GSNahYON6GvRc6ION9MD-26" edge="1">
          <mxGeometry relative="1" as="geometry">
            <mxPoint x="1800" y="1300" as="sourcePoint" />
            <mxPoint x="1960" y="1300" as="targetPoint" />
          </mxGeometry>
        </mxCell>
        <mxCell id="GSNahYON6GvRc6ION9MD-31" value="" style="endArrow=none;html=1;rounded=0;exitX=1;exitY=0.5;exitDx=0;exitDy=0;entryX=0;entryY=0.5;entryDx=0;entryDy=0;fontSize=18;" parent="1" source="GSNahYON6GvRc6ION9MD-20" target="GSNahYON6GvRc6ION9MD-27" edge="1">
          <mxGeometry relative="1" as="geometry">
            <mxPoint x="1820" y="1290" as="sourcePoint" />
            <mxPoint x="1980" y="1290" as="targetPoint" />
          </mxGeometry>
        </mxCell>
        <mxCell id="GSNahYON6GvRc6ION9MD-32" value="manage" style="shape=rhombus;perimeter=rhombusPerimeter;whiteSpace=wrap;html=1;align=center;fontSize=18;" parent="1" vertex="1">
          <mxGeometry x="1355" y="590" width="160" height="90" as="geometry" />
        </mxCell>
        <mxCell id="GSNahYON6GvRc6ION9MD-33" value="store-manager" style="whiteSpace=wrap;html=1;align=center;fontSize=18;" parent="1" vertex="1">
          <mxGeometry x="1725" y="600" width="160" height="65" as="geometry" />
        </mxCell>
        <mxCell id="GSNahYON6GvRc6ION9MD-34" value="" style="endArrow=none;html=1;rounded=0;exitX=1;exitY=0.25;exitDx=0;exitDy=0;entryX=0;entryY=1;entryDx=0;entryDy=0;" parent="1" source="GSNahYON6GvRc6ION9MD-8" target="GSNahYON6GvRc6ION9MD-32" edge="1">
          <mxGeometry relative="1" as="geometry">
            <mxPoint x="1150" y="970" as="sourcePoint" />
            <mxPoint x="1310" y="970" as="targetPoint" />
          </mxGeometry>
        </mxCell>
        <mxCell id="GSNahYON6GvRc6ION9MD-35" value="" style="endArrow=none;html=1;rounded=0;exitX=1;exitY=1;exitDx=0;exitDy=0;entryX=0;entryY=0.75;entryDx=0;entryDy=0;fontSize=18;" parent="1" source="GSNahYON6GvRc6ION9MD-32" target="GSNahYON6GvRc6ION9MD-33" edge="1">
          <mxGeometry relative="1" as="geometry">
            <mxPoint x="1545" y="640" as="sourcePoint" />
            <mxPoint x="1705" y="640" as="targetPoint" />
          </mxGeometry>
        </mxCell>
        <mxCell id="GSNahYON6GvRc6ION9MD-36" value="sm-ssn" style="ellipse;whiteSpace=wrap;html=1;align=center;fontStyle=4;fontSize=18;" parent="1" vertex="1">
          <mxGeometry x="1525" y="730" width="130" height="80" as="geometry" />
        </mxCell>
        <mxCell id="GSNahYON6GvRc6ION9MD-37" value="sm-salary" style="ellipse;whiteSpace=wrap;html=1;align=center;fontSize=18;" parent="1" vertex="1">
          <mxGeometry x="1675" y="770" width="110" height="80" as="geometry" />
        </mxCell>
        <mxCell id="GSNahYON6GvRc6ION9MD-38" value="sm-name" style="ellipse;whiteSpace=wrap;html=1;align=center;fontSize=18;" parent="1" vertex="1">
          <mxGeometry x="1845" y="770" width="130" height="80" as="geometry" />
        </mxCell>
        <mxCell id="GSNahYON6GvRc6ION9MD-39" value="" style="endArrow=none;html=1;rounded=0;exitX=1;exitY=0;exitDx=0;exitDy=0;entryX=0.25;entryY=1;entryDx=0;entryDy=0;fontSize=18;" parent="1" source="GSNahYON6GvRc6ION9MD-36" target="GSNahYON6GvRc6ION9MD-33" edge="1">
          <mxGeometry relative="1" as="geometry">
            <mxPoint x="1645" y="700" as="sourcePoint" />
            <mxPoint x="1805" y="700" as="targetPoint" />
          </mxGeometry>
        </mxCell>
        <mxCell id="GSNahYON6GvRc6ION9MD-40" value="" style="endArrow=none;html=1;rounded=0;exitX=0.5;exitY=1;exitDx=0;exitDy=0;entryX=0.5;entryY=0;entryDx=0;entryDy=0;fontSize=18;" parent="1" source="GSNahYON6GvRc6ION9MD-33" target="GSNahYON6GvRc6ION9MD-37" edge="1">
          <mxGeometry relative="1" as="geometry">
            <mxPoint x="1675" y="850" as="sourcePoint" />
            <mxPoint x="1835" y="850" as="targetPoint" />
          </mxGeometry>
        </mxCell>
        <mxCell id="GSNahYON6GvRc6ION9MD-41" value="" style="endArrow=none;html=1;rounded=0;exitX=0.75;exitY=1;exitDx=0;exitDy=0;entryX=0.5;entryY=0;entryDx=0;entryDy=0;fontSize=18;" parent="1" source="GSNahYON6GvRc6ION9MD-33" target="GSNahYON6GvRc6ION9MD-38" edge="1">
          <mxGeometry relative="1" as="geometry">
            <mxPoint x="1745" y="860" as="sourcePoint" />
            <mxPoint x="1905" y="860" as="targetPoint" />
          </mxGeometry>
        </mxCell>
        <mxCell id="6l5pugo1p9M2YUEUCl7_-1" value="" style="endArrow=none;html=1;rounded=0;exitX=0.25;exitY=1;exitDx=0;exitDy=0;entryX=0;entryY=0;entryDx=0;entryDy=0;" parent="1" source="GSNahYON6GvRc6ION9MD-1" target="GSNahYON6GvRc6ION9MD-9" edge="1">
          <mxGeometry relative="1" as="geometry">
            <mxPoint x="770" y="650" as="sourcePoint" />
            <mxPoint x="930" y="650" as="targetPoint" />
          </mxGeometry>
        </mxCell>
        <mxCell id="6l5pugo1p9M2YUEUCl7_-2" value="" style="endArrow=none;html=1;rounded=0;exitX=0;exitY=1;exitDx=0;exitDy=0;entryX=0.25;entryY=0;entryDx=0;entryDy=0;" parent="1" source="GSNahYON6GvRc6ION9MD-9" target="GSNahYON6GvRc6ION9MD-8" edge="1">
          <mxGeometry relative="1" as="geometry">
            <mxPoint x="760" y="850" as="sourcePoint" />
            <mxPoint x="920" y="850" as="targetPoint" />
          </mxGeometry>
        </mxCell>
        <mxCell id="6l5pugo1p9M2YUEUCl7_-3" value="&lt;font style=&quot;font-size: 20px;&quot;&gt;1&lt;/font&gt;" style="text;html=1;align=center;verticalAlign=middle;resizable=0;points=[];autosize=1;strokeColor=none;fillColor=none;" parent="1" vertex="1">
          <mxGeometry x="945" y="593" width="30" height="40" as="geometry" />
        </mxCell>
        <mxCell id="6l5pugo1p9M2YUEUCl7_-4" value="&lt;font style=&quot;font-size: 19px;&quot;&gt;M&lt;/font&gt;" style="text;html=1;align=center;verticalAlign=middle;resizable=0;points=[];autosize=1;strokeColor=none;fillColor=none;" parent="1" vertex="1">
          <mxGeometry x="950" y="823" width="40" height="40" as="geometry" />
        </mxCell>
        <mxCell id="6l5pugo1p9M2YUEUCl7_-5" value="" style="endArrow=none;html=1;rounded=0;exitX=0;exitY=1;exitDx=0;exitDy=0;entryX=0.25;entryY=0;entryDx=0;entryDy=0;" parent="1" source="GSNahYON6GvRc6ION9MD-21" target="GSNahYON6GvRc6ION9MD-20" edge="1">
          <mxGeometry relative="1" as="geometry">
            <mxPoint x="1410" y="1070" as="sourcePoint" />
            <mxPoint x="1570" y="1070" as="targetPoint" />
          </mxGeometry>
        </mxCell>
        <mxCell id="6l5pugo1p9M2YUEUCl7_-7" value="&lt;font style=&quot;font-size: 19px;&quot;&gt;M&lt;/font&gt;" style="text;html=1;align=center;verticalAlign=middle;resizable=0;points=[];autosize=1;strokeColor=none;fillColor=none;" parent="1" vertex="1">
          <mxGeometry x="1250" y="967.5" width="40" height="40" as="geometry" />
        </mxCell>
        <mxCell id="6l5pugo1p9M2YUEUCl7_-8" value="&lt;font style=&quot;font-size: 19px;&quot;&gt;1&lt;/font&gt;" style="text;html=1;align=center;verticalAlign=middle;resizable=0;points=[];autosize=1;strokeColor=none;fillColor=none;" parent="1" vertex="1">
          <mxGeometry x="1625" y="1053" width="30" height="40" as="geometry" />
        </mxCell>
        <mxCell id="6l5pugo1p9M2YUEUCl7_-9" value="" style="endArrow=none;html=1;rounded=0;exitX=0.946;exitY=0;exitDx=0;exitDy=0;entryX=0.056;entryY=0.611;entryDx=0;entryDy=0;exitPerimeter=0;entryPerimeter=0;" parent="1" source="GSNahYON6GvRc6ION9MD-8" target="GSNahYON6GvRc6ION9MD-32" edge="1">
          <mxGeometry relative="1" as="geometry">
            <mxPoint x="1060" y="950" as="sourcePoint" />
            <mxPoint x="1350" y="910" as="targetPoint" />
          </mxGeometry>
        </mxCell>
        <mxCell id="6l5pugo1p9M2YUEUCl7_-10" value="" style="endArrow=none;html=1;rounded=0;exitX=1;exitY=0;exitDx=0;exitDy=0;entryX=0;entryY=0.25;entryDx=0;entryDy=0;" parent="1" source="GSNahYON6GvRc6ION9MD-32" target="GSNahYON6GvRc6ION9MD-33" edge="1">
          <mxGeometry relative="1" as="geometry">
            <mxPoint x="1545" y="590" as="sourcePoint" />
            <mxPoint x="1705" y="590" as="targetPoint" />
          </mxGeometry>
        </mxCell>
        <mxCell id="6l5pugo1p9M2YUEUCl7_-11" value="&lt;font style=&quot;font-size: 18px;&quot;&gt;1&lt;/font&gt;" style="text;html=1;align=center;verticalAlign=middle;resizable=0;points=[];autosize=1;strokeColor=none;fillColor=none;" parent="1" vertex="1">
          <mxGeometry x="1280" y="710" width="30" height="40" as="geometry" />
        </mxCell>
        <mxCell id="6l5pugo1p9M2YUEUCl7_-12" value="&lt;font style=&quot;font-size: 19px;&quot;&gt;1&lt;/font&gt;" style="text;html=1;align=center;verticalAlign=middle;resizable=0;points=[];autosize=1;strokeColor=none;fillColor=none;" parent="1" vertex="1">
          <mxGeometry x="1570" y="613" width="30" height="40" as="geometry" />
        </mxCell>
        <mxCell id="nD2n8bgvMaRMY0E7mEra-1" value="" style="endArrow=none;html=1;rounded=0;entryX=0;entryY=0.75;entryDx=0;entryDy=0;" parent="1" target="GSNahYON6GvRc6ION9MD-8" edge="1">
          <mxGeometry relative="1" as="geometry">
            <mxPoint x="700" y="988" as="sourcePoint" />
            <mxPoint x="860" y="987.5" as="targetPoint" />
          </mxGeometry>
        </mxCell>
        <mxCell id="nD2n8bgvMaRMY0E7mEra-2" value="" style="endArrow=none;html=1;rounded=0;entryX=0.069;entryY=0.633;entryDx=0;entryDy=0;entryPerimeter=0;exitX=1.011;exitY=0.844;exitDx=0;exitDy=0;exitPerimeter=0;" parent="1" source="GSNahYON6GvRc6ION9MD-8" target="GSNahYON6GvRc6ION9MD-21" edge="1">
          <mxGeometry relative="1" as="geometry">
            <mxPoint x="1120" y="1030" as="sourcePoint" />
            <mxPoint x="1280" y="1030" as="targetPoint" />
          </mxGeometry>
        </mxCell>
        <mxCell id="nD2n8bgvMaRMY0E7mEra-3" value="department" style="shape=ext;margin=3;double=1;whiteSpace=wrap;html=1;align=center;fontSize=19;" parent="1" vertex="1">
          <mxGeometry x="901.25" y="1390" width="162.5" height="70" as="geometry" />
        </mxCell>
        <mxCell id="nD2n8bgvMaRMY0E7mEra-4" value="Relationship" style="shape=rhombus;double=1;perimeter=rhombusPerimeter;whiteSpace=wrap;html=1;align=center;fontSize=19;" parent="1" vertex="1">
          <mxGeometry x="906.25" y="1157.5" width="150" height="95" as="geometry" />
        </mxCell>
        <mxCell id="nD2n8bgvMaRMY0E7mEra-5" value="" style="endArrow=none;html=1;rounded=0;exitX=0.25;exitY=1;exitDx=0;exitDy=0;entryX=0;entryY=0;entryDx=0;entryDy=0;" parent="1" source="GSNahYON6GvRc6ION9MD-8" target="nD2n8bgvMaRMY0E7mEra-4" edge="1">
          <mxGeometry relative="1" as="geometry">
            <mxPoint x="700" y="1250" as="sourcePoint" />
            <mxPoint x="860" y="1250" as="targetPoint" />
          </mxGeometry>
        </mxCell>
        <mxCell id="nD2n8bgvMaRMY0E7mEra-6" value="" style="endArrow=none;html=1;rounded=0;exitX=0.654;exitY=1.056;exitDx=0;exitDy=0;entryX=1;entryY=0;entryDx=0;entryDy=0;exitPerimeter=0;" parent="1" source="GSNahYON6GvRc6ION9MD-8" target="nD2n8bgvMaRMY0E7mEra-4" edge="1">
          <mxGeometry relative="1" as="geometry">
            <mxPoint x="1110" y="1270" as="sourcePoint" />
            <mxPoint x="1270" y="1270" as="targetPoint" />
          </mxGeometry>
        </mxCell>
        <mxCell id="nD2n8bgvMaRMY0E7mEra-7" value="" style="endArrow=none;html=1;rounded=0;exitX=0.225;exitY=0.721;exitDx=0;exitDy=0;exitPerimeter=0;entryX=0.25;entryY=0;entryDx=0;entryDy=0;fontSize=19;" parent="1" source="nD2n8bgvMaRMY0E7mEra-4" target="nD2n8bgvMaRMY0E7mEra-3" edge="1">
          <mxGeometry relative="1" as="geometry">
            <mxPoint x="680" y="1350" as="sourcePoint" />
            <mxPoint x="840" y="1350" as="targetPoint" />
          </mxGeometry>
        </mxCell>
        <mxCell id="nD2n8bgvMaRMY0E7mEra-8" value="" style="endArrow=none;html=1;rounded=0;entryX=0.75;entryY=0;entryDx=0;entryDy=0;exitX=1;exitY=1;exitDx=0;exitDy=0;fontSize=19;" parent="1" source="nD2n8bgvMaRMY0E7mEra-4" target="nD2n8bgvMaRMY0E7mEra-3" edge="1">
          <mxGeometry relative="1" as="geometry">
            <mxPoint x="1007.5336245444695" y="1246.5443711218359" as="sourcePoint" />
            <mxPoint x="1040.005" y="1390" as="targetPoint" />
          </mxGeometry>
        </mxCell>
        <mxCell id="nD2n8bgvMaRMY0E7mEra-9" value="&lt;font style=&quot;font-size: 19px;&quot;&gt;1&lt;/font&gt;" style="text;html=1;align=center;verticalAlign=middle;resizable=0;points=[];autosize=1;strokeColor=none;fillColor=none;" parent="1" vertex="1">
          <mxGeometry x="965" y="1073" width="30" height="40" as="geometry" />
        </mxCell>
        <mxCell id="nD2n8bgvMaRMY0E7mEra-10" value="&lt;font style=&quot;font-size: 19px;&quot;&gt;M&lt;/font&gt;" style="text;html=1;align=center;verticalAlign=middle;resizable=0;points=[];autosize=1;strokeColor=none;fillColor=none;fontSize=19;" parent="1" vertex="1">
          <mxGeometry x="960" y="1293" width="40" height="40" as="geometry" />
        </mxCell>
        <mxCell id="nD2n8bgvMaRMY0E7mEra-11" value="&lt;span style=&quot;border-bottom: 1px dotted; font-size: 19px;&quot;&gt;dnum&lt;/span&gt;" style="ellipse;whiteSpace=wrap;html=1;align=center;fontSize=19;" parent="1" vertex="1">
          <mxGeometry x="640" y="1252.5" width="130" height="70" as="geometry" />
        </mxCell>
        <mxCell id="nD2n8bgvMaRMY0E7mEra-12" value="dname" style="ellipse;whiteSpace=wrap;html=1;align=center;fontSize=19;" parent="1" vertex="1">
          <mxGeometry x="660" y="1405" width="105" height="75" as="geometry" />
        </mxCell>
        <mxCell id="nD2n8bgvMaRMY0E7mEra-13" value="" style="endArrow=none;html=1;rounded=0;exitX=1;exitY=0.5;exitDx=0;exitDy=0;entryX=0;entryY=0.25;entryDx=0;entryDy=0;fontSize=19;" parent="1" source="nD2n8bgvMaRMY0E7mEra-11" target="nD2n8bgvMaRMY0E7mEra-3" edge="1">
          <mxGeometry relative="1" as="geometry">
            <mxPoint x="790" y="1350" as="sourcePoint" />
            <mxPoint x="950" y="1350" as="targetPoint" />
          </mxGeometry>
        </mxCell>
        <mxCell id="nD2n8bgvMaRMY0E7mEra-14" value="" style="endArrow=none;html=1;rounded=0;exitX=1;exitY=0.5;exitDx=0;exitDy=0;entryX=0;entryY=0.5;entryDx=0;entryDy=0;fontSize=19;" parent="1" source="nD2n8bgvMaRMY0E7mEra-12" target="nD2n8bgvMaRMY0E7mEra-3" edge="1">
          <mxGeometry relative="1" as="geometry">
            <mxPoint x="790" y="1510" as="sourcePoint" />
            <mxPoint x="950" y="1510" as="targetPoint" />
          </mxGeometry>
        </mxCell>
        <mxCell id="nD2n8bgvMaRMY0E7mEra-15" value="work_for" style="shape=rhombus;perimeter=rhombusPerimeter;whiteSpace=wrap;html=1;align=center;fontSize=19;" parent="1" vertex="1">
          <mxGeometry x="901.25" y="1590" width="150" height="100" as="geometry" />
        </mxCell>
        <mxCell id="nD2n8bgvMaRMY0E7mEra-16" value="employee" style="whiteSpace=wrap;html=1;align=center;fontSize=19;" parent="1" vertex="1">
          <mxGeometry x="910" y="1840" width="145" height="80" as="geometry" />
        </mxCell>
        <mxCell id="nD2n8bgvMaRMY0E7mEra-17" value="" style="endArrow=none;html=1;rounded=0;exitX=0.25;exitY=1;exitDx=0;exitDy=0;entryX=0;entryY=0;entryDx=0;entryDy=0;fontSize=19;" parent="1" source="nD2n8bgvMaRMY0E7mEra-3" target="nD2n8bgvMaRMY0E7mEra-15" edge="1">
          <mxGeometry relative="1" as="geometry">
            <mxPoint x="780" y="1580" as="sourcePoint" />
            <mxPoint x="940" y="1580" as="targetPoint" />
          </mxGeometry>
        </mxCell>
        <mxCell id="nD2n8bgvMaRMY0E7mEra-18" value="" style="endArrow=none;html=1;rounded=0;exitX=0.75;exitY=1;exitDx=0;exitDy=0;entryX=1;entryY=0;entryDx=0;entryDy=0;fontSize=19;" parent="1" source="nD2n8bgvMaRMY0E7mEra-3" target="nD2n8bgvMaRMY0E7mEra-15" edge="1">
          <mxGeometry relative="1" as="geometry">
            <mxPoint x="1070" y="1590" as="sourcePoint" />
            <mxPoint x="1230" y="1590" as="targetPoint" />
          </mxGeometry>
        </mxCell>
        <mxCell id="nD2n8bgvMaRMY0E7mEra-19" value="" style="endArrow=none;html=1;rounded=0;exitX=0;exitY=1;exitDx=0;exitDy=0;entryX=0.25;entryY=0;entryDx=0;entryDy=0;fontSize=19;" parent="1" source="nD2n8bgvMaRMY0E7mEra-15" target="nD2n8bgvMaRMY0E7mEra-16" edge="1">
          <mxGeometry relative="1" as="geometry">
            <mxPoint x="700" y="1850" as="sourcePoint" />
            <mxPoint x="860" y="1850" as="targetPoint" />
          </mxGeometry>
        </mxCell>
        <mxCell id="nD2n8bgvMaRMY0E7mEra-20" value="" style="endArrow=none;html=1;rounded=0;entryX=0.75;entryY=0;entryDx=0;entryDy=0;exitX=1;exitY=1;exitDx=0;exitDy=0;fontSize=19;" parent="1" source="nD2n8bgvMaRMY0E7mEra-15" target="nD2n8bgvMaRMY0E7mEra-16" edge="1">
          <mxGeometry relative="1" as="geometry">
            <mxPoint x="1100" y="1810" as="sourcePoint" />
            <mxPoint x="1260" y="1810" as="targetPoint" />
          </mxGeometry>
        </mxCell>
        <mxCell id="nD2n8bgvMaRMY0E7mEra-21" value="&lt;font style=&quot;font-size: 19px;&quot;&gt;1&lt;/font&gt;" style="text;html=1;align=center;verticalAlign=middle;resizable=0;points=[];autosize=1;strokeColor=none;fillColor=none;fontSize=19;" parent="1" vertex="1">
          <mxGeometry x="965" y="1513" width="30" height="40" as="geometry" />
        </mxCell>
        <mxCell id="nD2n8bgvMaRMY0E7mEra-22" value="&lt;font style=&quot;font-size: 19px;&quot;&gt;M&lt;/font&gt;" style="text;html=1;align=center;verticalAlign=middle;resizable=0;points=[];autosize=1;strokeColor=none;fillColor=none;fontSize=19;" parent="1" vertex="1">
          <mxGeometry x="956.25" y="1733" width="40" height="40" as="geometry" />
        </mxCell>
        <mxCell id="nD2n8bgvMaRMY0E7mEra-23" value="essn" style="ellipse;whiteSpace=wrap;html=1;align=center;fontStyle=4;fontSize=19;" parent="1" vertex="1">
          <mxGeometry x="680" y="1750" width="130" height="70" as="geometry" />
        </mxCell>
        <mxCell id="nD2n8bgvMaRMY0E7mEra-24" value="ename" style="ellipse;whiteSpace=wrap;html=1;align=center;fontSize=19;" parent="1" vertex="1">
          <mxGeometry x="640" y="1900" width="150" height="60" as="geometry" />
        </mxCell>
        <mxCell id="nD2n8bgvMaRMY0E7mEra-25" value="" style="endArrow=none;html=1;rounded=0;exitX=1;exitY=0.5;exitDx=0;exitDy=0;entryX=0;entryY=0.75;entryDx=0;entryDy=0;fontSize=19;" parent="1" source="nD2n8bgvMaRMY0E7mEra-24" target="nD2n8bgvMaRMY0E7mEra-16" edge="1">
          <mxGeometry relative="1" as="geometry">
            <mxPoint x="840" y="1990" as="sourcePoint" />
            <mxPoint x="1000" y="1990" as="targetPoint" />
          </mxGeometry>
        </mxCell>
        <mxCell id="nD2n8bgvMaRMY0E7mEra-26" value="" style="endArrow=none;html=1;rounded=0;exitX=1;exitY=0.5;exitDx=0;exitDy=0;entryX=0;entryY=0.25;entryDx=0;entryDy=0;fontSize=19;" parent="1" source="nD2n8bgvMaRMY0E7mEra-23" target="nD2n8bgvMaRMY0E7mEra-16" edge="1">
          <mxGeometry relative="1" as="geometry">
            <mxPoint x="770" y="1850" as="sourcePoint" />
            <mxPoint x="930" y="1850" as="targetPoint" />
          </mxGeometry>
        </mxCell>
        <mxCell id="Ai6RAw6J8XThOest1DNO-1" value="manages" style="shape=rhombus;perimeter=rhombusPerimeter;whiteSpace=wrap;html=1;align=center;fontSize=19;" vertex="1" parent="1">
          <mxGeometry x="906.25" y="2050" width="168" height="90" as="geometry" />
        </mxCell>
        <mxCell id="Ai6RAw6J8XThOest1DNO-2" value="M" style="endArrow=none;html=1;rounded=0;exitX=0.25;exitY=1;exitDx=0;exitDy=0;entryX=0;entryY=0.5;entryDx=0;entryDy=0;fontSize=21;" edge="1" parent="1" source="nD2n8bgvMaRMY0E7mEra-16" target="Ai6RAw6J8XThOest1DNO-1">
          <mxGeometry relative="1" as="geometry">
            <mxPoint x="770" y="2020" as="sourcePoint" />
            <mxPoint x="930" y="2020" as="targetPoint" />
          </mxGeometry>
        </mxCell>
        <mxCell id="Ai6RAw6J8XThOest1DNO-3" value="1" style="endArrow=none;html=1;rounded=0;exitX=0.75;exitY=1;exitDx=0;exitDy=0;entryX=1;entryY=0.5;entryDx=0;entryDy=0;fontSize=21;" edge="1" parent="1" source="nD2n8bgvMaRMY0E7mEra-16" target="Ai6RAw6J8XThOest1DNO-1">
          <mxGeometry relative="1" as="geometry">
            <mxPoint x="1100" y="2060" as="sourcePoint" />
            <mxPoint x="1260" y="2060" as="targetPoint" />
          </mxGeometry>
        </mxCell>
        <mxCell id="Ai6RAw6J8XThOest1DNO-4" value="D" style="ellipse;whiteSpace=wrap;html=1;aspect=fixed;" vertex="1" parent="1">
          <mxGeometry x="1565" y="1620" width="80" height="80" as="geometry" />
        </mxCell>
        <mxCell id="Ai6RAw6J8XThOest1DNO-5" value="person" style="whiteSpace=wrap;html=1;align=center;fontSize=20;" vertex="1" parent="1">
          <mxGeometry x="1510" y="1920" width="180" height="70" as="geometry" />
        </mxCell>
        <mxCell id="Ai6RAw6J8XThOest1DNO-6" value="pssn" style="ellipse;whiteSpace=wrap;html=1;align=center;fontStyle=4;fontSize=20;" vertex="1" parent="1">
          <mxGeometry x="1310" y="2030" width="100" height="40" as="geometry" />
        </mxCell>
        <mxCell id="Ai6RAw6J8XThOest1DNO-7" value="pname" style="ellipse;whiteSpace=wrap;html=1;align=center;fontSize=20;" vertex="1" parent="1">
          <mxGeometry x="1450" y="2090" width="100" height="40" as="geometry" />
        </mxCell>
        <mxCell id="Ai6RAw6J8XThOest1DNO-8" value="padd" style="ellipse;whiteSpace=wrap;html=1;align=center;fontSize=20;" vertex="1" parent="1">
          <mxGeometry x="1625" y="2130" width="100" height="40" as="geometry" />
        </mxCell>
        <mxCell id="Ai6RAw6J8XThOest1DNO-9" value="pphone" style="ellipse;whiteSpace=wrap;html=1;align=center;fontSize=20;" vertex="1" parent="1">
          <mxGeometry x="1800" y="2050" width="100" height="40" as="geometry" />
        </mxCell>
        <mxCell id="Ai6RAw6J8XThOest1DNO-10" value="" style="endArrow=none;html=1;rounded=0;exitX=1;exitY=0.5;exitDx=0;exitDy=0;entryX=0;entryY=0.5;entryDx=0;entryDy=0;fontSize=20;" edge="1" parent="1" source="Ai6RAw6J8XThOest1DNO-6" target="Ai6RAw6J8XThOest1DNO-5">
          <mxGeometry relative="1" as="geometry">
            <mxPoint x="1320" y="2000" as="sourcePoint" />
            <mxPoint x="1480" y="2000" as="targetPoint" />
          </mxGeometry>
        </mxCell>
        <mxCell id="Ai6RAw6J8XThOest1DNO-11" value="" style="endArrow=none;html=1;rounded=0;exitX=0.25;exitY=1;exitDx=0;exitDy=0;entryX=0.5;entryY=0;entryDx=0;entryDy=0;fontSize=20;" edge="1" parent="1" source="Ai6RAw6J8XThOest1DNO-5" target="Ai6RAw6J8XThOest1DNO-7">
          <mxGeometry relative="1" as="geometry">
            <mxPoint x="1470" y="2050" as="sourcePoint" />
            <mxPoint x="1630" y="2050" as="targetPoint" />
          </mxGeometry>
        </mxCell>
        <mxCell id="Ai6RAw6J8XThOest1DNO-12" value="" style="endArrow=none;html=1;rounded=0;exitX=0.5;exitY=1;exitDx=0;exitDy=0;entryX=0.5;entryY=0;entryDx=0;entryDy=0;fontSize=20;" edge="1" parent="1" source="Ai6RAw6J8XThOest1DNO-5" target="Ai6RAw6J8XThOest1DNO-8">
          <mxGeometry relative="1" as="geometry">
            <mxPoint x="1480" y="2060" as="sourcePoint" />
            <mxPoint x="1640" y="2060" as="targetPoint" />
          </mxGeometry>
        </mxCell>
        <mxCell id="Ai6RAw6J8XThOest1DNO-13" value="" style="endArrow=none;html=1;rounded=0;exitX=1;exitY=1;exitDx=0;exitDy=0;entryX=0.5;entryY=0;entryDx=0;entryDy=0;fontSize=20;" edge="1" parent="1" source="Ai6RAw6J8XThOest1DNO-5" target="Ai6RAw6J8XThOest1DNO-9">
          <mxGeometry relative="1" as="geometry">
            <mxPoint x="1490" y="2070" as="sourcePoint" />
            <mxPoint x="1650" y="2070" as="targetPoint" />
          </mxGeometry>
        </mxCell>
        <mxCell id="Ai6RAw6J8XThOest1DNO-14" value="" style="endArrow=none;html=1;rounded=0;exitX=1;exitY=0.25;exitDx=0;exitDy=0;entryX=0;entryY=0.5;entryDx=0;entryDy=0;" edge="1" parent="1" source="nD2n8bgvMaRMY0E7mEra-16" target="Ai6RAw6J8XThOest1DNO-4">
          <mxGeometry relative="1" as="geometry">
            <mxPoint x="1260" y="1830" as="sourcePoint" />
            <mxPoint x="1420" y="1830" as="targetPoint" />
          </mxGeometry>
        </mxCell>
        <mxCell id="Ai6RAw6J8XThOest1DNO-15" value="" style="endArrow=none;html=1;rounded=0;exitX=0.5;exitY=1;exitDx=0;exitDy=0;entryX=0.5;entryY=0;entryDx=0;entryDy=0;" edge="1" parent="1" source="Ai6RAw6J8XThOest1DNO-4" target="Ai6RAw6J8XThOest1DNO-5">
          <mxGeometry relative="1" as="geometry">
            <mxPoint x="1570" y="1840" as="sourcePoint" />
            <mxPoint x="1730" y="1840" as="targetPoint" />
          </mxGeometry>
        </mxCell>
        <mxCell id="Ai6RAw6J8XThOest1DNO-16" value="" style="endArrow=none;html=1;rounded=0;exitX=0.5;exitY=1;exitDx=0;exitDy=0;entryX=0.5;entryY=0;entryDx=0;entryDy=0;" edge="1" parent="1" source="GSNahYON6GvRc6ION9MD-20" target="Ai6RAw6J8XThOest1DNO-4">
          <mxGeometry relative="1" as="geometry">
            <mxPoint x="1590" y="1540" as="sourcePoint" />
            <mxPoint x="1750" y="1540" as="targetPoint" />
          </mxGeometry>
        </mxCell>
        <mxCell id="Ai6RAw6J8XThOest1DNO-17" value="" style="endArrow=none;html=1;rounded=0;exitX=1;exitY=0.5;exitDx=0;exitDy=0;entryX=1;entryY=1;entryDx=0;entryDy=0;edgeStyle=orthogonalEdgeStyle;" edge="1" parent="1" source="Ai6RAw6J8XThOest1DNO-4" target="GSNahYON6GvRc6ION9MD-33">
          <mxGeometry relative="1" as="geometry">
            <mxPoint x="1710" y="1640" as="sourcePoint" />
            <mxPoint x="1870" y="1640" as="targetPoint" />
            <Array as="points">
              <mxPoint x="2070" y="1660" />
              <mxPoint x="2070" y="665" />
            </Array>
          </mxGeometry>
        </mxCell>
        <mxCell id="Ai6RAw6J8XThOest1DNO-18" value="" style="shape=stencil(lVbLkhoxDPyauXbZsmVL583mP7Zq2UCFwBZLXn8fkSlPsAdU4TaYblC3WhpP6elj+/K+mSh8nE/Hr5ufu9fzdkqfJqLdYbs57c72NKXnKT29HU+bL6fj98Pr/Pn95YK8PH07/rj8wq+ZlypSubAo/J5PAkL4e/B5xu93h2s8Iz6EJwTt8BFV7+NJwLXDZwRx8AUxdHhugm7jCcQd3gyo9/FRUKTDK4qjN5o/sddrDrBDiODcEzI43icIaMAXqKOYkYcGmILsdAypN9Qsq45DZuiAZ4jT4dj8XvCK7NQfwH3DUkJ2ErHkccELolP/Cp8TqtOwFZ79CVjjC7Jbz6C3ENQLEMqANz/pgf5WRnHqYRB1eIlthP4vn1KQnH6tB0AD8kMjpgmcHIK2gVoIjOotiQTtPVLbEo6nJjr0Jqkge0NGiINobapuE8rKJUV1bM1htYiCH1TLvZbHGNJ281VR7GSDV2E1n8RRwbll/4pAjk+sCP16sdZFR0NJiP1+tHCw07pSEdIYP29h1Ig4aLB3oPMPNpDUaxB1XwlV2wQvhApybJU8uiSM4JQk0nb0QiCIU5ISUh8/Ca33twkFddhLy1Xg9lSH1WatZbhb2MO/i8/bbr+f703X348XJTuaL1np+Q8=);fillColor=none;" vertex="1" parent="1">
          <mxGeometry x="1238.3333333333335" y="1726.3333333333335" width="75.83333333333334" height="93.33333333333334" as="geometry" />
        </mxCell>
        <mxCell id="Ai6RAw6J8XThOest1DNO-19" value="" style="shape=stencil(jVXLcsMgDPwaX3cA8dI5bf8jM3EaT9M446Svvy8eFycQW9Mbhl0ZrVaioc3lsD23jVGX69C/tV/d7npo6Kkxpjsd2qG7plVDzw1t9v3Qvg79x2k3fZ+3I3JcvfefY4Tviaeg1Egy6mfa0GreepkIx+4kEThCOwnPusDHiMjreIvx6A4fAkJcxztwKPEmR1jER7gyvic4u47XGkwFwRGi8APtobkgWEIQFEoSBVsQyIKElFPOVQ2MzyGWCQznyiozrEAgqlXSqS4SYS7SzUdQQSizAZWyehhBJOtBpY8IVojvHo0tSuRSfr7AK3jBpo6huMJLbZNcxpWiUMJ9PINMla+mdXywCCU+NYZwn/BgCc4BlttmtuR8fxL7OLV5nXCE8usENvBlhY2BE0rMDrZMITW3pBGHbPpZUwMWckijzZVJJ587QVXmPAvn3jdQWiRUZUtGj0Lv343nudBGHJBLDBbnywLDO7F7FhiBcjn/y4iUR8IfIy1uz9a+Ox6nV+/+vH7m0tb0RNLzLw==);fillColor=none;" vertex="1" parent="1">
          <mxGeometry x="1583.3333333333335" y="1479.666666666667" width="73.33333333333334" height="60" as="geometry" />
        </mxCell>
        <mxCell id="Ai6RAw6J8XThOest1DNO-20" value="" style="shape=stencil(hVZBctswDHyNrhgSIAjinKb/yEycWlPXzjhum/y+UBU5ASUjN5rclQnsAsRAdy/7h+fdgOnlcj793P0dHy/7gb4NiONxvzuPF1sNdD/Q3dPpvPtxPv0+Ps6/nx8m5LT6dfozfeF15iVIaSJheps3EJL83/g+ww/j0cErOXiGzLfhFVJ28AQl34ZnBq4dPqcAryDY4VOAn+7Tfz/CE0Lr8VRu44sdty497xvbeIHKXfal3sZzAfTpZ8iBWqxA6vACrIFcBM3fJ8cB1wapC5igBIYQ6v2W4ytJWyK8pghDDzVaLHMlCCgFBAHxSSJadjYJmvugSaEGsmmB7GUrvBhrm1BBvQ6cF6dvE7Q3NsdpzWlV+DXO6xajAgaM9aWq+TEirMpBvgibl2Z1JViqA7+adOKlkziG1gB9DGbIGlypFZDiCM3sEtkvA/oe9uHg7YqQXocWdwFBoI4ggFFVmw6+bbdYuHXfUHsookaT+kavsfu4AnulNS5SRmCvtFVhC3QobTm+EuIitRpmr/RUtoFwxUL0jUbjIrW2gl44NTsG7wkxKPaEyK32wHUPxBcE1FVaG2hgPntysfsHXdrnNgFXaY3Ntx4CPrWqd4YtPgagp/FwmOenz+f9wGRb87BF9/8A);fillColor=none;" vertex="1" parent="1">
          <mxGeometry x="1863.333333333334" y="1626.75" width="88.75" height="60.41666666666667" as="geometry" />
        </mxCell>
      </root>
    </mxGraphModel>
  </diagram>
</mxfile>
